<svg xmlns="http://www.w3.org/2000/svg" viewBox="0 0 256 256">
  <defs>
    <linearGradient id="a" x1="50%" x2="50%" y1="0%" y2="100%">
      <stop offset="0%" stop-color="#FF6C37"/>
      <stop offset="100%" stop-color="#E85A2B"/>
    </linearGradient>
  </defs>
  <circle cx="128" cy="128" r="128" fill="url(#a)"/>
  <path fill="#FFF" d="M128 40c-48.6 0-88 39.4-88 88s39.4 88 88 88 88-39.4 88-88-39.4-88-88-88zm0 16c39.8 0 72 32.2 72 72s-32.2 72-72 72-72-32.2-72-72 32.2-72 72-72z"/>
  <path fill="#FFF" d="M128 80c-26.5 0-48 21.5-48 48s21.5 48 48 48 48-21.5 48-48-21.5-48-48-48zm0 16c17.7 0 32 14.3 32 32s-14.3 32-32 32-32-14.3-32-32 14.3-32 32-32z"/>
  <circle cx="128" cy="128" r="16" fill="#FFF"/>
</svg>