<svg xmlns="http://www.w3.org/2000/svg" viewBox="0 0 256 256">
  <defs>
    <linearGradient id="a" x1="50%" x2="50%" y1="0%" y2="100%">
      <stop offset="0%" stop-color="#41873f"/>
      <stop offset="100%" stop-color="#418B3D"/>
    </linearGradient>
  </defs>
  <path fill="url(#a)" d="M128 0C57.328 0 0 57.328 0 128s57.328 128 128 128 128-57.328 128-128S198.672 0 128 0zm-6.272 174.24c-6.784 0-12.288-5.504-12.288-12.288s5.504-12.288 12.288-12.288 12.288 5.504 12.288 12.288-5.504 12.288-12.288 12.288zm19.2-32c-6.784 0-12.288-5.504-12.288-12.288 0-6.784 5.504-12.288 12.288-12.288s12.288 5.504 12.288 12.288c0 6.784-5.504 12.288-12.288 12.288zm0-32c-6.784 0-12.288-5.504-12.288-12.288s5.504-12.288 12.288-12.288 12.288 5.504 12.288 12.288-5.504 12.288-12.288 12.288z"/>
  <path fill="#68B063" d="M64 192c0-53.024 42.976-96 96-96v64c0 17.664-14.336 32-32 32H64z"/>
  <path fill="#8CC84B" d="M160 64c53.024 0 96 42.976 96 96h-64c-17.664 0-32-14.336-32-32V64z"/>
</svg>