<svg xmlns="http://www.w3.org/2000/svg" viewBox="0 0 256 256">
  <defs>
    <linearGradient id="a" x1="50%" x2="50%" y1="0%" y2="100%">
      <stop offset="0%" stop-color="#007ACC"/>
      <stop offset="100%" stop-color="#0062A3"/>
    </linearGradient>
  </defs>
  <rect width="256" height="256" fill="url(#a)" rx="12"/>
  <path fill="#FFF" d="M200.83 144.45v35.4H204v-35.4h-3.17zm-56.83 0v35.4h3.17v-35.4H144zm-28.42 0v35.4h3.17v-32.23h26.55v-3.17h-29.72zm-28.41 0v35.4h3.17v-32.23h26.55v-3.17H87.17zm56.83-24.13v20.96h3.17v-20.96H144zm-28.42 0v20.96h3.17v-17.79h26.55v-3.17h-29.72zm-28.41 0v20.96h3.17v-17.79h26.55v-3.17H87.17zm-28.42 0v20.96h3.17v-17.79h26.55v-3.17H58.75zm141.25-9.54v14.37h3.17v-14.37H200zm-28.42 0v14.37h3.17v-11.2h26.55v-3.17h-29.72zm-28.41 0v14.37h3.17v-11.2h26.55v-3.17h-29.72z"/>
  <path fill="#FFF" d="M67.11 76.21c0-3.17 2.58-5.75 5.75-5.75s5.75 2.58 5.75 5.75-2.58 5.75-5.75 5.75-5.75-2.58-5.75-5.75zm20.96 0c0-3.17 2.58-5.75 5.75-5.75s5.75 2.58 5.75 5.75-2.58 5.75-5.75 5.75-5.75-2.58-5.75-5.75zm20.96 0c0-3.17 2.58-5.75 5.75-5.75s5.75 2.58 5.75 5.75-2.58 5.75-5.75 5.75-5.75-2.58-5.75-5.75z"/>
</svg>