<svg xmlns="http://www.w3.org/2000/svg" viewBox="0 0 256 256">
  <defs>
    <linearGradient id="a" x1="50%" x2="50%" y1="0%" y2="100%">
      <stop offset="0%" stop-color="#DC382D"/>
      <stop offset="100%" stop-color="#B42318"/>
    </linearGradient>
  </defs>
  <rect width="256" height="256" fill="url(#a)" rx="12"/>
  <path fill="#FFF" d="M128 48c-44.2 0-80 35.8-80 80s35.8 80 80 80 80-35.8 80-80-35.8-80-80-80zm0 16c35.3 0 64 28.7 64 64s-28.7 64-64 64-64-28.7-64-64 28.7-64 64-64z"/>
  <circle cx="128" cy="128" r="32" fill="#FFF"/>
  <path fill="#FFF" d="M128 96c-17.7 0-32 14.3-32 32h16c0-8.8 7.2-16 16-16s16 7.2 16 16h16c0-17.7-14.3-32-32-32z"/>
</svg>